<svg xmlns="http://www.w3.org/2000/svg" xmlns:xlink="http://www.w3.org/1999/xlink" version="1.1" width="573.699" height="573.699" style="enable-background:new 0 0 573.699 573.699;" xml:space="preserve"><rect id="backgroundrect" width="100%" height="100%" x="0" y="0" fill="none" stroke="none"/>
















<g class="currentLayer" style=""><title>Layer 1</title><g id="svg_1" class="selected" fill="#ffffff" fill-opacity="1">
	<g id="svg_2" fill="#ffffff" fill-opacity="1">
		<path d="M305.949,424.6c0-1.9,0-1.9,0-3.799V133.9c0-11.5-7.6-19.1-19.099-19.1c-11.5,0-19.1,9.6-19.1,19.1v286.901    c0,1.898,0,1.898,0,3.799c-23,7.701-38.2,28.701-38.2,53.5c0,32.5,24.9,57.4,57.4,57.4c32.499,0,57.399-24.9,57.399-57.4    C344.25,453.301,328.949,432.301,305.949,424.6z" id="svg_3" fill="#ffffff" fill-opacity="1"/>
		<path d="M344.25,401.699V57.4c0-32.5-24.9-57.4-57.4-57.4c-32.5,0-57.4,26.8-57.4,57.4v344.2c-23,17.201-38.2,45.9-38.2,76.5    c0,53.5,42.1,95.6,95.6,95.6c53.5,0,95.599-42.1,95.599-95.6C382.449,447.5,367.15,418.9,344.25,401.699z M286.85,554.699    c-42.1,0-76.5-34.398-76.5-76.5c0-28.699,15.3-53.5,38.2-66.898V57.4c0-21,17.2-38.2,38.2-38.2s38.199,17.2,38.199,38.2v353.799    c23,13.4,38.201,38.201,38.201,66.9C363.35,520.199,328.949,554.699,286.85,554.699z" id="svg_4" fill="#ffffff" fill-opacity="1"/>
	</g>
</g><g id="svg_5">
</g><g id="svg_6">
</g><g id="svg_7">
</g><g id="svg_8">
</g><g id="svg_9">
</g><g id="svg_10">
</g><g id="svg_11">
</g><g id="svg_12">
</g><g id="svg_13">
</g><g id="svg_14">
</g><g id="svg_15">
</g><g id="svg_16">
</g><g id="svg_17">
</g><g id="svg_18">
</g><g id="svg_19">
</g></g></svg>